<svg width="108" height="222" viewBox="0 0 108 222" fill="none" xmlns="http://www.w3.org/2000/svg">
<path opacity="0.17" fill-rule="evenodd" clip-rule="evenodd" d="M108 37.341C108 55.8535 94.832 71.219 77.555 74.1705C94.832 77.122 108 92.4881 108 111C108 129.512 94.832 144.878 77.555 147.829C94.832 150.781 108 166.147 108 184.659C108 205.281 91.658 222 71.5 222C53.405 222 38.385 208.529 35.5 190.853C32.615 208.529 17.595 222 -0.5 222C-18.595 222 -33.615 208.529 -36.5 190.853C-39.385 208.529 -54.4045 222 -72.5 222C-92.6584 222 -109 205.281 -109 184.659C-109 166.147 -95.8319 150.781 -78.5555 147.829C-95.8319 144.878 -109 129.512 -109 111C-109 92.4881 -95.8319 77.122 -78.5555 74.1705C-95.8319 71.219 -109 55.8535 -109 37.341C-109 16.7181 -92.6584 0 -72.5 0C-54.4045 0 -39.385 13.4715 -36.5 31.146C-33.615 13.4715 -18.595 0 -0.5 0C17.595 0 32.615 13.4715 35.5 31.146C38.385 13.4715 53.405 0 71.5 0C91.658 0 108 16.7181 108 37.341ZM-36.5 43.536C-39.056 59.1956 -51.1376 71.5556 -66.4445 74.1705C-51.1376 76.7854 -39.056 89.1458 -36.5 104.805C-33.944 89.1458 -21.862 76.7854 -6.55499 74.1705C-21.862 71.5556 -33.944 59.1956 -36.5 43.536ZM5.55499 74.1705C20.862 71.5556 32.944 59.1956 35.5 43.536C38.056 59.1956 50.138 71.5556 65.445 74.1705C50.138 76.7854 38.056 89.1458 35.5 104.805C32.944 89.1458 20.862 76.7854 5.55499 74.1705ZM35.5 178.464C38.056 162.805 50.138 150.444 65.445 147.829C50.138 145.215 38.056 132.854 35.5 117.195C32.944 132.854 20.862 145.215 5.55499 147.829C20.862 150.444 32.944 162.805 35.5 178.464ZM-36.5 117.195C-33.944 132.854 -21.862 145.215 -6.55499 147.829C-21.862 150.444 -33.944 162.805 -36.5 178.464C-39.056 162.805 -51.1376 150.444 -66.4445 147.829C-51.1376 145.215 -39.056 132.854 -36.5 117.195Z" fill="#5D5FEF"/>
</svg>
