<svg width="116" height="222" viewBox="0 0 116 222" fill="none" xmlns="http://www.w3.org/2000/svg">
<path opacity="0.17" fill-rule="evenodd" clip-rule="evenodd" d="M116 37.341C116 55.8535 102.832 71.219 85.555 74.1705C102.832 77.122 116 92.4881 116 111C116 129.512 102.832 144.878 85.555 147.829C102.832 150.781 116 166.147 116 184.659C116 205.281 99.658 222 79.5 222C61.405 222 46.385 208.529 43.5 190.853C40.615 208.529 25.595 222 7.5 222C-10.595 222 -25.615 208.529 -28.5 190.853C-31.385 208.529 -46.4045 222 -64.5 222C-84.6584 222 -101 205.281 -101 184.659C-101 166.147 -87.8319 150.781 -70.5555 147.829C-87.8319 144.878 -101 129.512 -101 111C-101 92.4881 -87.8319 77.122 -70.5555 74.1705C-87.8319 71.219 -101 55.8535 -101 37.341C-101 16.7181 -84.6584 0 -64.5 0C-46.4045 0 -31.385 13.4715 -28.5 31.146C-25.615 13.4715 -10.595 0 7.5 0C25.595 0 40.615 13.4715 43.5 31.146C46.385 13.4715 61.405 0 79.5 0C99.658 0 116 16.7181 116 37.341ZM-28.5 43.536C-31.056 59.1956 -43.1376 71.5556 -58.4445 74.1705C-43.1376 76.7854 -31.056 89.1458 -28.5 104.805C-25.944 89.1458 -13.862 76.7854 1.44501 74.1705C-13.862 71.5556 -25.944 59.1956 -28.5 43.536ZM13.555 74.1705C28.862 71.5556 40.944 59.1956 43.5 43.536C46.056 59.1956 58.138 71.5556 73.445 74.1705C58.138 76.7854 46.056 89.1458 43.5 104.805C40.944 89.1458 28.862 76.7854 13.555 74.1705ZM43.5 178.464C46.056 162.805 58.138 150.444 73.445 147.829C58.138 145.215 46.056 132.854 43.5 117.195C40.944 132.854 28.862 145.215 13.555 147.829C28.862 150.444 40.944 162.805 43.5 178.464ZM-28.5 117.195C-25.944 132.854 -13.862 145.215 1.44501 147.829C-13.862 150.444 -25.944 162.805 -28.5 178.464C-31.056 162.805 -43.1376 150.444 -58.4445 147.829C-43.1376 145.215 -31.056 132.854 -28.5 117.195Z" fill="#5D5FEF"/>
</svg>
